<?xml version="1.0" encoding="utf-8"?>
<!-- Generator: Adobe Illustrator 22.0.0, SVG Export Plug-In . SVG Version: 6.00 Build 0)  -->
<svg version="1.1" id="Слой_1" xmlns="http://www.w3.org/2000/svg" xmlns:xlink="http://www.w3.org/1999/xlink" x="0px" y="0px"
	 viewBox="0 0 44 44" style="enable-background:new 0 0 44 44;" xml:space="preserve">
<style type="text/css">
	.st0{fill:#4718B4;}
	.st1{fill:#FFFFFF;}
</style>
<g>
	<path class="st0" d="M43.3,27.3c-2.9,11.8-14.9,19-26.7,16c-11.8-2.9-19-14.9-16-26.7c2.9-11.8,14.9-19,26.7-16
		C39.1,3.6,46.3,15.5,43.3,27.3L43.3,27.3L43.3,27.3z"/>
	<path class="st1" d="M16.9,19.8l-1.6,6.4c-0.1,0.3-0.4,0.7-1.2,0.6c0,0-1.8-0.4-1.8-0.4L11,29l3.3,0.8c0.6,0.1,1.2,0.3,1.8,0.4
		l-1,4l2.5,0.6l1-4c0.7,0.2,1.4,0.3,2,0.5l-1,4l2.5,0.6l1-4c4.3,0.8,7.5,0.5,8.9-3.3c1.1-3-0.1-4.8-2.3-5.9c1.6-0.4,2.9-1.4,3.2-3.6
		l0,0c0.5-2.9-1.9-4.5-5.1-5.6l1-4l-2.5-0.6l-1,3.9c-0.7-0.2-1.3-0.3-2-0.5l1-3.9L21.9,8l-1,4c-0.5-0.1-1.1-0.2-1.6-0.4l0,0
		l-3.5-0.8l-0.7,2.6c0,0,1.9,0.4,1.8,0.4c1,0.2,1.2,0.9,1.2,1.4L16.9,19.8L16.9,19.8z M27.2,27c-0.8,3-6.1,1.4-7.8,1l1.4-5.3
		C22.5,23.1,28,23.9,27.2,27L27.2,27z M28,19.2c-0.7,2.7-5.1,1.3-6.5,1l1.3-4.8C24.1,15.7,28.7,16.4,28,19.2z"/>
</g>
</svg>
