<?xml version="1.0" encoding="utf-8"?>
<!-- Generator: Adobe Illustrator 22.0.0, SVG Export Plug-In . SVG Version: 6.00 Build 0)  -->
<svg version="1.1" id="Слой_1" xmlns="http://www.w3.org/2000/svg" xmlns:xlink="http://www.w3.org/1999/xlink" x="0px" y="0px"
	 viewBox="0 0 44 44" style="enable-background:new 0 0 44 44;" xml:space="preserve">
<style type="text/css">
	.st0{fill:#4718B4;}
	.st1{fill:#FFFFFF;}
</style>
<g>
	<path class="st0" d="M43.3,27.3c-2.9,11.8-14.9,19-26.7,16c-11.8-2.9-19-14.9-16-26.7c2.9-11.8,14.9-19,26.7-16
		C39.1,3.6,46.3,15.5,43.3,27.3L43.3,27.3L43.3,27.3z"/>
	<path class="st1" d="M16.5,22.5l1.6,6.4c0,0.3,0,0.9-0.7,1.1c0,0-1.8,0.5-1.8,0.5l0.2,3l3.3-0.9c0.6-0.2,1.2-0.3,1.8-0.5l1,4
		l2.5-0.7l-1-4c0.7-0.2,1.4-0.4,2-0.5l1,4l2.5-0.7l-1-4c4.1-1.4,6.8-3.2,6.2-7.2c-0.5-3.2-2.3-4.1-4.9-4c1.3-1.1,1.8-2.6,1.1-4.7
		l0,0c-1-2.8-3.8-3.1-7.1-2.4l-1-4l-2.5,0.7l1,3.9c-0.7,0.2-1.3,0.4-2,0.6l-1-3.9l-2.5,0.7l1,4c-0.5,0.2-1.1,0.3-1.6,0.5l0,0l-3.4,1
		l0.7,2.6c0,0,1.8-0.5,1.8-0.5c1-0.3,1.5,0.2,1.7,0.7L16.5,22.5L16.5,22.5z M29,23.9c0.8,3-4.6,4.1-6.3,4.6l-1.4-5.3
		C23,22.7,28.2,20.8,29,23.9L29,23.9z M25.9,16.7c0.7,2.7-3.8,3.6-5.2,4l-1.2-4.8C20.8,15.5,25.1,13.8,25.9,16.7z"/>
</g>
</svg>
