<svg xmlns="http://www.w3.org/2000/svg" width="48" height="48" viewBox="0 0 48 48">
    <path fill="#E04A36" fill-rule="evenodd" d="M37.47 35.31v-9.37c0-5.02-2.68-7.356-6.253-7.356-2.883 0-4.175 1.586-4.895 2.7v-2.316H20.89c.072 1.534 0 16.342 0 16.342h5.432v-9.127c0-.487.035-.975.179-1.324.392-.976 1.285-1.986 2.785-1.986 1.967 0 2.752 1.498 2.752 3.694v8.743h5.432zM15.167 16.738c1.894 0 3.074-1.256 3.074-2.825-.035-1.603-1.18-2.823-3.038-2.823-1.857 0-3.073 1.22-3.073 2.823 0 1.569 1.18 2.825 3.003 2.825h.034zM24 48C10.746 48 0 37.254 0 24 0 10.745 10.746 0 24 0s24 10.745 24 24c0 13.254-10.746 24-24 24zm-6.117-12.69V18.968h-5.431V35.31h5.431z"/>
</svg>
