<svg xmlns="http://www.w3.org/2000/svg" width="123" height="46" viewBox="0 0 123 46">
    <g fill="none" fill-rule="nonzero">
        <path fill="#E2086E" d="M12.235 0h6.837v46h-9V14H0z"/>
        <path fill="#E2086E" d="M54 0h25.638v8H62v15.613h-8z"/>
        <path fill="#E2086E" d="M52.712 36h7.348A7.856 7.856 0 1 0 67 23.66v-.016H54.81C56.289 21.494 58.352 19.28 61 17h5.5C74.508 17 81 23.492 81 31.5S74.508 46 66.5 46c-6.437 0-11.895-4.195-13.788-10zM104 46c-10.493 0-19-10.297-19-23s8.507-23 19-23 19 10.297 19 23-8.507 23-19 23zm0-9c6.075 0 11-6.268 11-14s-4.925-14-11-14-11 6.268-11 14 4.925 14 11 14z"/>
        <circle cx="38.5" cy="33.5" r="5.5" fill="#4718B4"/>
        <circle cx="38.5" cy="14.5" r="5.5" fill="#4718B4"/>
    </g>
</svg>
