<svg xmlns="http://www.w3.org/2000/svg" width="195" height="57" viewBox="0 0 195 57">
    <g fill="none" fill-rule="evenodd">
        <path fill="#4718B4" d="M63.488 9.073l-8.586 24.951h-7.769l-8.586-24.95h6.904l5.544 17.918 5.588-17.919h6.905zm27.157 13.754H71.592c.407 3.942 3.116 5.912 6.456 5.912 2.483 0 4.651-1.119 5.51-3.09h6.682c-1.852 5.823-6.819 8.375-12.145 8.375C70.327 34.024 65 28.561 65 21.216c0-7.39 5.373-12.899 12.958-12.899 8.218 0 13.32 6.404 12.687 14.51zm16.015-4.878c7.21 1.61 11.247 2.957 11.247 7.883 0 5.5-5.136 8.192-11.378 8.192-7.105 0-11.45-3.073-12.052-8.378h6.656c.354 2.002 2.008 3.05 5.938 3.05 2.891 0 4.038-.679 4.038-2.013 0-1.658-1.97-1.795-5.782-2.693-7.164-1.657-10.102-3.222-10.102-7.48 0-5.19 4.414-8.193 11.069-8.193 7.023 0 10.468 3.315 11.343 7.882h-6.658c-.507-1.564-1.887-2.509-4.92-2.509-2.608 0-4.226.714-4.226 2.061 0 1.163 1.158 1.392 4.827 2.198zM2.267 15.56L9.07 9.073v24.951H2.267V15.561zm35.524 2.682v15.781h-6.532V19.661c0-3.293-1.232-5.123-4.704-5.123-3.7 0-5.663 2.15-5.663 6.266v13.22H14.36V8.865h6.532v3.431c1.826-2.561 4.339-3.979 7.81-3.979 5.664 0 9.089 3.75 9.089 9.926z"/>
        <path fill="#FFCA00" d="M9.07 0H0l9.07 9.172z"/>
        <path fill="#FFF" d="M71.908 18.125h11.875c-.722-2.688-2.754-4.523-5.87-4.523-3.16 0-5.192 1.88-6.005 4.523z"/>
        <path fill="#4718B4" d="M150.514 18.125h11.874c-.723-2.688-2.754-4.523-5.87-4.523-3.161 0-5.193 1.88-6.004 4.523zm18.735 4.702h-19.053c.407 3.942 3.117 5.912 6.458 5.912 2.482 0 4.65-1.119 5.508-3.09h6.683c-1.852 5.823-6.818 8.375-12.146 8.375-7.766 0-13.094-5.463-13.094-12.808 0-7.39 5.373-12.899 12.958-12.899 8.217 0 13.32 6.404 12.686 14.51zm17.977 11.197l-5.166-7.848-4.894 7.848h-7.864l8.87-12.883-8.413-12.068h7.773l4.756 7.305 4.435-7.305h7.865l-8.413 12.25L195 34.024h-7.774zm-47.005-6.553l1.872 4.955c-1.357.903-4.837 2.354-7.818 2.354-4.966 0-9.68-3.015-9.68-10.232v-9.267h-4.42v-2.007l10.88-11.006v6.853h9.3v6.16h-9.3v8.904c0 2.968 1.642 4.769 4.218 4.769 1.45 0 2.919-.583 4.948-1.483z"/>
        <path fill="#000" d="M6.446 47.355c.91 0 1.69.338 2.327 1.001.637.663.962 1.47.962 2.418 0 .95-.325 1.768-.962 2.431a3.106 3.106 0 0 1-2.327.988c-1.079 0-1.898-.429-2.457-1.287v1.118H2.858v-9.1h1.131v3.718c.559-.858 1.378-1.287 2.457-1.287zm-.143 5.746c.65 0 1.196-.22 1.638-.663.442-.455.663-1 .663-1.664 0-.663-.221-1.209-.663-1.65-.442-.456-.988-.677-1.638-.677-.663 0-1.209.221-1.651.676-.442.442-.663.988-.663 1.651s.221 1.21.663 1.664c.442.442.988.663 1.651.663zm10.086-4.459v-1.118h1.131v6.5h-1.131v-1.118c-.559.858-1.378 1.287-2.457 1.287-.91 0-1.69-.325-2.327-.988s-.962-1.482-.962-2.43c0-.95.325-1.756.962-2.419s1.417-1 2.327-1c1.079 0 1.898.428 2.457 1.286zm-2.314 4.46c.663 0 1.209-.222 1.651-.664.442-.455.663-1 .663-1.664 0-.663-.221-1.209-.663-1.65-.442-.456-.988-.677-1.651-.677-.65 0-1.196.221-1.638.676-.442.442-.663.988-.663 1.651s.221 1.21.663 1.664c.442.442.988.663 1.638.663zm8.318-5.747c1.521 0 2.522 1.027 2.522 2.678v3.991h-1.131v-3.926c0-1.053-.611-1.664-1.612-1.664-1.131 0-1.885.69-1.885 2.145v3.445h-1.131v-6.5h1.131v.936c.455-.74 1.157-1.105 2.106-1.105zm6.303 3.315l3.211 3.354h-1.404l-2.964-3.08v3.08h-1.131v-9.1h1.131v5.473l2.808-2.873h1.456l-3.107 3.146zm4.756-4.329a.757.757 0 0 1-.767-.754c0-.416.338-.767.767-.767.416 0 .754.351.754.767a.755.755 0 0 1-.754.754zm.559 7.683H32.88v-6.5h1.131v6.5zm4.886-6.669c1.521 0 2.522 1.027 2.522 2.678v3.991h-1.131v-3.926c0-1.053-.611-1.664-1.612-1.664-1.131 0-1.885.69-1.885 2.145v3.445H35.66v-6.5h1.131v.936c.455-.74 1.157-1.105 2.106-1.105zm9.41 1.287v-1.118h1.118v6.227c0 .962-.325 1.703-.975 2.236-.65.533-1.43.806-2.34.806-1.456 0-2.548-.559-3.081-1.586l.988-.559c.351.728 1.066 1.092 2.119 1.092 1.352 0 2.171-.754 2.171-1.989v-.923c-.572.871-1.391 1.3-2.444 1.3-.923 0-1.716-.325-2.353-.988-.637-.663-.962-1.456-.962-2.405 0-.949.325-1.742.962-2.392.637-.663 1.43-.988 2.353-.988 1.066 0 1.885.43 2.444 1.287zm0 2.093c0-.65-.221-1.196-.663-1.638-.442-.442-.988-.663-1.651-.663s-1.209.221-1.651.663c-.442.442-.663.988-.663 1.638 0 .663.221 1.21.663 1.651.442.442.988.663 1.651.663s1.209-.22 1.651-.663c.442-.442.663-.988.663-1.65zm12.164 1.625l1.209 1.287-1.014.585-.923-.988c-.676.637-1.547.95-2.6.95-.91 0-1.651-.235-2.21-.703-.559-.48-.845-1.118-.845-1.924 0-1.105.572-2.093 1.664-2.626a2.59 2.59 0 0 1-.585-1.65c0-.755.26-1.366.78-1.834.533-.468 1.157-.702 1.898-.702 1.209 0 2.288.702 2.717 1.86l-1.014.584c-.26-.793-.897-1.274-1.677-1.274-.832 0-1.495.56-1.495 1.352 0 .572.273.975.806 1.547l2.483 2.652c.221-.455.377-1 .468-1.65l1.04.597a5.314 5.314 0 0 1-.702 1.937zm-3.302.69c.715 0 1.313-.209 1.794-.638l-2.457-2.639c-.832.351-1.209 1.027-1.209 1.716 0 .975.689 1.56 1.872 1.56zm12.294-5.526v1.092h-1.729v3.523c0 1.001.572.923 1.729.871v1.014c-1.976.26-2.86-.273-2.86-1.885v-3.523h-1.287v-1.092h1.287v-1.482l1.131-.338v1.82h1.729zm2.429 0v1.092c.377-.806 1.053-1.209 2.028-1.209v1.183c-.559-.026-1.027.117-1.43.442s-.598.832-.598 1.547v3.445h-1.131v-6.5h1.131zm8.084 1.118v-1.118h1.131v6.5h-1.131v-1.118c-.559.858-1.378 1.287-2.457 1.287-.91 0-1.69-.325-2.327-.988s-.962-1.482-.962-2.43c0-.95.325-1.756.962-2.419s1.417-1 2.327-1c1.079 0 1.898.428 2.457 1.286zm-2.314 4.46c.663 0 1.209-.222 1.651-.664.442-.455.663-1 .663-1.664 0-.663-.221-1.209-.663-1.65-.442-.456-.988-.677-1.651-.677-.65 0-1.196.221-1.638.676-.442.442-.663.988-.663 1.651s.221 1.21.663 1.664c.442.442.988.663 1.638.663zm10.463-4.46v-3.718h1.131v9.1h-1.131v-1.118c-.559.858-1.378 1.287-2.457 1.287-.91 0-1.69-.325-2.327-.988s-.962-1.482-.962-2.43c0-.95.325-1.756.962-2.419s1.417-1 2.327-1c1.079 0 1.898.428 2.457 1.286zm-2.314 4.46c.663 0 1.209-.222 1.651-.664.442-.455.663-1 .663-1.664 0-.663-.221-1.209-.663-1.65-.442-.456-.988-.677-1.651-.677-.65 0-1.196.221-1.638.676-.442.442-.663.988-.663 1.651s.221 1.21.663 1.664c.442.442.988.663 1.638.663zm5.653-6.76a.757.757 0 0 1-.767-.755c0-.416.338-.767.767-.767.416 0 .754.351.754.767a.755.755 0 0 1-.754.754zm.559 7.682h-1.131v-6.5h1.131v6.5zm4.886-6.669c1.521 0 2.522 1.027 2.522 2.678v3.991H98.3v-3.926c0-1.053-.611-1.664-1.612-1.664-1.131 0-1.885.69-1.885 2.145v3.445h-1.131v-6.5h1.131v.936c.455-.74 1.157-1.105 2.106-1.105zm9.41 1.287v-1.118h1.118v6.227c0 .962-.325 1.703-.975 2.236-.65.533-1.43.806-2.34.806-1.456 0-2.548-.559-3.081-1.586l.988-.559c.351.728 1.066 1.092 2.119 1.092 1.352 0 2.171-.754 2.171-1.989v-.923c-.572.871-1.391 1.3-2.444 1.3-.923 0-1.716-.325-2.353-.988-.637-.663-.962-1.456-.962-2.405 0-.949.325-1.742.962-2.392.637-.663 1.43-.988 2.353-.988 1.066 0 1.885.43 2.444 1.287zm0 2.093c0-.65-.221-1.196-.663-1.638-.442-.442-.988-.663-1.651-.663s-1.209.221-1.651.663c-.442.442-.663.988-.663 1.638 0 .663.221 1.21.663 1.651.442.442.988.663 1.651.663s1.209-.22 1.651-.663c.442-.442.663-.988.663-1.65z" opacity=".5"/>
    </g>
</svg>
