<svg xmlns="http://www.w3.org/2000/svg" width="556" height="614" viewBox="0 0 556 614">
    <g fill="none" fill-rule="evenodd">
        <path fill="#FBFBFB" d="M473 378l59.3 59.155H473L556 520V378z"/>
        <path fill="#FFCA00" d="M450 0l106 106V0z"/>
        <path fill="#FBFBFB" d="M472 555v-59h-59z"/>
        <path fill="#4718B4" d="M472 437v-59h-59z"/>
        <path fill="#FBFBFB" d="M472 319v-59h-59zM472 259v-59h-59z"/>
        <path fill="#E2086E" d="M472 142V83h-59z"/>
        <path fill="#FBFBFB" d="M413 614v-59h-59z"/>
        <path fill="#FFCA00" d="M413 437v-59h-59z"/>
        <path fill="#FBFBFB" d="M413 378v-59h-59zM413 201v-59h-59zM413 142V83h-59zM354 555v-59h-59zM354 378v-59h-59zM354 259v-59h-59zM354 142V83h-59zM271 0l83 83V0zM295 437v-59h-59zM295 259v-59h-59zM295 142V83h-59zM236 614v-59h-59zM236 378v-59h-59z"/>
        <path fill="#E2086E" d="M236 319v-59h-59z"/>
        <path fill="#FBFBFB" d="M236 201v-59h-59zM177 614v-59h-59zM177 378v-59h-59zM177 201v-59h-59z"/>
        <path fill="#FFCA00" d="M118 496v-59H59z"/>
        <path fill="#FBFBFB" d="M118 259v-59H59zM118 142V83H59zM59 555v-59H0zM59 319v-59H0zM59 142V83H0z"/>
    </g>
</svg>
